<svg xmlns="http://www.w3.org/2000/svg" xmlns:xlink="http://www.w3.org/1999/xlink" contentStyleType="text/css" height="717px" preserveAspectRatio="none" style="width:1213px;height:717px;background:#FFFFFF;" version="1.1" viewBox="0 0 1213 717" width="1213px" zoomAndPan="magnify"><defs/><g><!--cluster 2567a5ec9705eb7ac2c984033e06189d--><g id="cluster_2567a5ec9705eb7ac2c984033e06189d"><polygon fill="none" points="16,56.74,26,46.74,382,46.74,382,599.26,372,609.26,16,609.26,16,56.74" style="stroke:#181818;stroke-width:1.0;"/><line style="stroke:#181818;stroke-width:1.0;" x1="372" x2="382" y1="56.74" y2="46.74"/><line style="stroke:#181818;stroke-width:1.0;" x1="16" x2="372" y1="56.74" y2="56.74"/><line style="stroke:#181818;stroke-width:1.0;" x1="372" x2="372" y1="56.74" y2="609.26"/><text fill="#000000" font-family="sans-serif" font-size="14" font-weight="bold" lengthAdjust="spacing" textLength="35" x="177.5" y="72.7351">Web</text></g><!--cluster 86a1b907d54bf7010394bf316e183e67--><g id="cluster_86a1b907d54bf7010394bf316e183e67"><polygon fill="none" points="1040,64.89,1050,54.89,1196,54.89,1196,196.08,1186,206.08,1040,206.08,1040,64.89" style="stroke:#181818;stroke-width:1.0;"/><line style="stroke:#181818;stroke-width:1.0;" x1="1186" x2="1196" y1="64.89" y2="54.89"/><line style="stroke:#181818;stroke-width:1.0;" x1="1040" x2="1186" y1="64.89" y2="64.89"/><line style="stroke:#181818;stroke-width:1.0;" x1="1186" x2="1186" y1="64.89" y2="206.08"/><text fill="#000000" font-family="sans-serif" font-size="14" font-weight="bold" lengthAdjust="spacing" textLength="43" x="1092.5" y="80.8851">Redis</text></g><!--cluster 587516af1efac0b9293f31639c6c31f3--><g id="cluster_587516af1efac0b9293f31639c6c31f3"><polygon fill="none" points="468,16,478,6,1016,6,1016,599.26,1006,609.26,468,609.26,468,16" style="stroke:#181818;stroke-width:1.0;"/><line style="stroke:#181818;stroke-width:1.0;" x1="1006" x2="1016" y1="16" y2="6"/><line style="stroke:#181818;stroke-width:1.0;" x1="468" x2="1006" y1="16" y2="16"/><line style="stroke:#181818;stroke-width:1.0;" x1="1006" x2="1006" y1="16" y2="609.26"/><text fill="#000000" font-family="sans-serif" font-size="14" font-weight="bold" lengthAdjust="spacing" textLength="65" x="705.5" y="31.9951">Datadog</text></g><!--entity 04a565d19766ebe0348853b17c395bd1--><g id="elem_04a565d19766ebe0348853b17c395bd1"><rect fill="#F1F1F1" height="111.4844" rx="2.5" ry="2.5" style="stroke:#181818;stroke-width:0.5;" width="334" x="32" y="86.74"/><rect fill="#F1F1F1" height="10" style="stroke:#181818;stroke-width:0.5;" width="15" x="346" y="91.74"/><rect fill="#F1F1F1" height="2" style="stroke:#181818;stroke-width:0.5;" width="4" x="344" y="93.74"/><rect fill="#F1F1F1" height="2" style="stroke:#181818;stroke-width:0.5;" width="4" x="344" y="97.74"/><text fill="#000000" font-family="sans-serif" font-size="14" font-weight="bold" lengthAdjust="spacing" textLength="34" x="47" y="119.7351">web</text><text fill="#000000" font-family="sans-serif" font-size="14" lengthAdjust="spacing" textLength="4" x="47" y="136.032">&#160;</text><text fill="#000000" font-family="sans-serif" font-size="14" lengthAdjust="spacing" textLength="282" x="47" y="152.3289">environment: DATADOG_HOST=datadog</text><text fill="#000000" font-family="sans-serif" font-size="14" lengthAdjust="spacing" textLength="294" x="47" y="168.6257">environment: DD_AGENT_HOST=dd-agent</text><text fill="#000000" font-family="sans-serif" font-size="14" lengthAdjust="spacing" textLength="4" x="47" y="184.9226">&#160;</text></g><!--entity 880fe43dfa96c1caa7990e453d64b2e1--><g id="elem_880fe43dfa96c1caa7990e453d64b2e1"><ellipse cx="300" cy="328.97" fill="#F1F1F1" rx="8" ry="8" style="stroke:#181818;stroke-width:0.5;"/><text fill="#000000" font-family="sans-serif" font-size="14" lengthAdjust="spacing" textLength="36" x="282" y="358.9651">5000</text></g><!--entity 4ae8434c535c76df893919c2b9c9c766--><g id="elem_4ae8434c535c76df893919c2b9c9c766"><rect fill="#F1F1F1" height="39.2969" rx="2.5" ry="2.5" style="stroke:#181818;stroke-width:0.5;" width="70" x="164" y="553.97"/><polygon fill="#F1F1F1" points="217,558.97,217,572.97,229,572.97,229,564.97,223,558.97,217,558.97" style="stroke:#181818;stroke-width:0.5;"/><line style="stroke:#181818;stroke-width:0.5;" x1="223" x2="223" y1="558.97" y2="564.97"/><line style="stroke:#181818;stroke-width:0.5;" x1="229" x2="223" y1="564.97" y2="564.97"/><text fill="#000000" font-family="sans-serif" font-size="14" lengthAdjust="spacing" textLength="40" x="174" y="579.9651">/code</text></g><!--entity 3c217ea98bfddc0f9ff1c849de325d93--><g id="elem_3c217ea98bfddc0f9ff1c849de325d93"><rect fill="#F1F1F1" height="95.1875" rx="2.5" ry="2.5" style="stroke:#181818;stroke-width:0.5;" width="125" x="1055.5" y="94.89"/><rect fill="#F1F1F1" height="10" style="stroke:#181818;stroke-width:0.5;" width="15" x="1160.5" y="99.89"/><rect fill="#F1F1F1" height="2" style="stroke:#181818;stroke-width:0.5;" width="4" x="1158.5" y="101.89"/><rect fill="#F1F1F1" height="2" style="stroke:#181818;stroke-width:0.5;" width="4" x="1158.5" y="105.89"/><text fill="#000000" font-family="sans-serif" font-size="14" font-weight="bold" lengthAdjust="spacing" textLength="40" x="1070.5" y="127.8851">redis</text><text fill="#000000" font-family="sans-serif" font-size="14" lengthAdjust="spacing" textLength="4" x="1070.5" y="144.182">&#160;</text><text fill="#000000" font-family="sans-serif" font-size="14" lengthAdjust="spacing" textLength="85" x="1070.5" y="160.4789">image: redis</text><text fill="#000000" font-family="sans-serif" font-size="14" lengthAdjust="spacing" textLength="4" x="1070.5" y="176.7757">&#160;</text></g><!--entity eae5d7ff2f7ca90aec6c4066dd36d1c0--><g id="elem_eae5d7ff2f7ca90aec6c4066dd36d1c0"><rect fill="#F1F1F1" height="192.9688" rx="2.5" ry="2.5" style="stroke:#181818;stroke-width:0.5;" width="447" x="522.5" y="46"/><rect fill="#F1F1F1" height="10" style="stroke:#181818;stroke-width:0.5;" width="15" x="949.5" y="51"/><rect fill="#F1F1F1" height="2" style="stroke:#181818;stroke-width:0.5;" width="4" x="947.5" y="53"/><rect fill="#F1F1F1" height="2" style="stroke:#181818;stroke-width:0.5;" width="4" x="947.5" y="57"/><text fill="#000000" font-family="sans-serif" font-size="14" font-weight="bold" lengthAdjust="spacing" textLength="71" x="537.5" y="78.9951">dd-agent</text><text fill="#000000" font-family="sans-serif" font-size="14" lengthAdjust="spacing" textLength="4" x="537.5" y="95.292">&#160;</text><text fill="#000000" font-family="sans-serif" font-size="14" lengthAdjust="spacing" textLength="192" x="537.5" y="111.5889">environment: DD_API_KEY=</text><text fill="#000000" font-family="sans-serif" font-size="14" lengthAdjust="spacing" text-decoration="underline" textLength="191" x="729.5" y="111.5889">your_datadog_api_key_here</text><text fill="#000000" font-family="sans-serif" font-size="14" lengthAdjust="spacing" textLength="407" x="537.5" y="127.8857">environment: DD_DOGSTATSD_NON_LOCAL_TRAFFIC=true</text><text fill="#000000" font-family="sans-serif" font-size="14" lengthAdjust="spacing" textLength="267" x="537.5" y="144.1826">environment: DD_APM_ENABLED=true</text><text fill="#000000" font-family="sans-serif" font-size="14" lengthAdjust="spacing" textLength="348" x="537.5" y="160.4795">environment: DD_APM_NON_LOCAL_TRAFFIC=true</text><text fill="#000000" font-family="sans-serif" font-size="14" lengthAdjust="spacing" textLength="294" x="537.5" y="176.7764">environment: DD_AGENT_HOST=dd-agent</text><text fill="#000000" font-family="sans-serif" font-size="14" lengthAdjust="spacing" textLength="276" x="537.5" y="193.0732">environment: DD_SITE=datadoghq.com</text><text fill="#000000" font-family="sans-serif" font-size="14" lengthAdjust="spacing" textLength="282" x="537.5" y="209.3701">environment: DATADOG_HOST=datadog</text><text fill="#000000" font-family="sans-serif" font-size="14" lengthAdjust="spacing" textLength="4" x="537.5" y="225.667">&#160;</text></g><!--entity 835598d6a1c91d24c621664e693f63c4--><g id="elem_835598d6a1c91d24c621664e693f63c4"><rect fill="#F1F1F1" height="39.2969" rx="2.5" ry="2.5" style="stroke:#181818;stroke-width:0.5;" width="173" x="484.5" y="553.97"/><polygon fill="#F1F1F1" points="640.5,558.97,640.5,572.97,652.5,572.97,652.5,564.97,646.5,558.97,640.5,558.97" style="stroke:#181818;stroke-width:0.5;"/><line style="stroke:#181818;stroke-width:0.5;" x1="646.5" x2="646.5" y1="558.97" y2="564.97"/><line style="stroke:#181818;stroke-width:0.5;" x1="652.5" x2="646.5" y1="564.97" y2="564.97"/><text fill="#000000" font-family="sans-serif" font-size="14" lengthAdjust="spacing" textLength="143" x="494.5" y="579.9651">/var/run/docker.sock</text></g><!--entity d8a3456085c0370cdc3a5ae4e9d87089--><g id="elem_d8a3456085c0370cdc3a5ae4e9d87089"><rect fill="#F1F1F1" height="39.2969" rx="2.5" ry="2.5" style="stroke:#181818;stroke-width:0.5;" width="107" x="692.5" y="553.97"/><polygon fill="#F1F1F1" points="782.5,558.97,782.5,572.97,794.5,572.97,794.5,564.97,788.5,558.97,782.5,558.97" style="stroke:#181818;stroke-width:0.5;"/><line style="stroke:#181818;stroke-width:0.5;" x1="788.5" x2="788.5" y1="558.97" y2="564.97"/><line style="stroke:#181818;stroke-width:0.5;" x1="794.5" x2="788.5" y1="564.97" y2="564.97"/><text fill="#000000" font-family="sans-serif" font-size="14" lengthAdjust="spacing" textLength="77" x="702.5" y="579.9651">/host/proc/</text></g><!--entity c8d73bc2c2829e0a6d0ece6d97da80c5--><g id="elem_c8d73bc2c2829e0a6d0ece6d97da80c5"><rect fill="#F1F1F1" height="39.2969" rx="2.5" ry="2.5" style="stroke:#181818;stroke-width:0.5;" width="165" x="834.5" y="553.97"/><polygon fill="#F1F1F1" points="982.5,558.97,982.5,572.97,994.5,572.97,994.5,564.97,988.5,558.97,982.5,558.97" style="stroke:#181818;stroke-width:0.5;"/><line style="stroke:#181818;stroke-width:0.5;" x1="988.5" x2="988.5" y1="558.97" y2="564.97"/><line style="stroke:#181818;stroke-width:0.5;" x1="994.5" x2="988.5" y1="564.97" y2="564.97"/><text fill="#000000" font-family="sans-serif" font-size="14" lengthAdjust="spacing" textLength="135" x="844.5" y="579.9651">/host/sys/fs/cgroup</text></g><!--entity 5f4021161759ed34e883af07df742a57--><g id="elem_5f4021161759ed34e883af07df742a57"><ellipse cx="425" cy="463.97" fill="#F1F1F1" rx="8" ry="8" style="stroke:#181818;stroke-width:0.5;"/><text fill="#000000" font-family="sans-serif" font-size="14" lengthAdjust="spacing" textLength="36" x="407" y="493.9651">5000</text></g><!--entity b59be758d1ac7a4cf06e7c5664496761--><g id="elem_b59be758d1ac7a4cf06e7c5664496761"><rect fill="#F1F1F1" height="39.2969" rx="2.5" ry="2.5" style="stroke:#181818;stroke-width:0.5;" width="68" x="165" y="672.26"/><polygon fill="#F1F1F1" points="216,677.26,216,691.26,228,691.26,228,683.26,222,677.26,216,677.26" style="stroke:#181818;stroke-width:0.5;"/><line style="stroke:#181818;stroke-width:0.5;" x1="222" x2="222" y1="677.26" y2="683.26"/><line style="stroke:#181818;stroke-width:0.5;" x1="228" x2="222" y1="683.26" y2="683.26"/><text fill="#000000" font-family="sans-serif" font-size="14" lengthAdjust="spacing" textLength="38" x="175" y="698.2551">./web</text></g><!--entity d2e4048eb785166d505ec373eb6db9fc--><g id="elem_d2e4048eb785166d505ec373eb6db9fc"><rect fill="#F1F1F1" height="39.2969" rx="2.5" ry="2.5" style="stroke:#181818;stroke-width:0.5;" width="173" x="484.5" y="672.26"/><polygon fill="#F1F1F1" points="640.5,677.26,640.5,691.26,652.5,691.26,652.5,683.26,646.5,677.26,640.5,677.26" style="stroke:#181818;stroke-width:0.5;"/><line style="stroke:#181818;stroke-width:0.5;" x1="646.5" x2="646.5" y1="677.26" y2="683.26"/><line style="stroke:#181818;stroke-width:0.5;" x1="652.5" x2="646.5" y1="683.26" y2="683.26"/><text fill="#000000" font-family="sans-serif" font-size="14" lengthAdjust="spacing" textLength="143" x="494.5" y="698.2551">/var/run/docker.sock</text></g><!--entity cb1be5f4ca5fa323b8a3e8f0a85f3ae4--><g id="elem_cb1be5f4ca5fa323b8a3e8f0a85f3ae4"><rect fill="#F1F1F1" height="39.2969" rx="2.5" ry="2.5" style="stroke:#181818;stroke-width:0.5;" width="71" x="710.5" y="672.26"/><polygon fill="#F1F1F1" points="764.5,677.26,764.5,691.26,776.5,691.26,776.5,683.26,770.5,677.26,764.5,677.26" style="stroke:#181818;stroke-width:0.5;"/><line style="stroke:#181818;stroke-width:0.5;" x1="770.5" x2="770.5" y1="677.26" y2="683.26"/><line style="stroke:#181818;stroke-width:0.5;" x1="776.5" x2="770.5" y1="683.26" y2="683.26"/><text fill="#000000" font-family="sans-serif" font-size="14" lengthAdjust="spacing" textLength="41" x="720.5" y="698.2551">/proc/</text></g><!--entity d545ba6facbcbb7457d969949ed05e0d--><g id="elem_d545ba6facbcbb7457d969949ed05e0d"><rect fill="#F1F1F1" height="39.2969" rx="2.5" ry="2.5" style="stroke:#181818;stroke-width:0.5;" width="129" x="852.5" y="672.26"/><polygon fill="#F1F1F1" points="964.5,677.26,964.5,691.26,976.5,691.26,976.5,683.26,970.5,677.26,964.5,677.26" style="stroke:#181818;stroke-width:0.5;"/><line style="stroke:#181818;stroke-width:0.5;" x1="970.5" x2="970.5" y1="677.26" y2="683.26"/><line style="stroke:#181818;stroke-width:0.5;" x1="976.5" x2="970.5" y1="683.26" y2="683.26"/><text fill="#000000" font-family="sans-serif" font-size="14" lengthAdjust="spacing" textLength="99" x="862.5" y="698.2551">/sys/fs/cgroup</text></g><!--link 04a565d19766ebe0348853b17c395bd1 to 880fe43dfa96c1caa7990e453d64b2e1--><g id="link_04a565d19766ebe0348853b17c395bd1_880fe43dfa96c1caa7990e453d64b2e1"><path codeLine="43" d="M229.03,198.33 C252.99,242.09 284.34,299.37 295.68,320.07 " fill="none" id="04a565d19766ebe0348853b17c395bd1-880fe43dfa96c1caa7990e453d64b2e1" style="stroke:#181818;stroke-width:1.0;"/></g><!--link 880fe43dfa96c1caa7990e453d64b2e1 to 5f4021161759ed34e883af07df742a57--><g id="link_880fe43dfa96c1caa7990e453d64b2e1_5f4021161759ed34e883af07df742a57"><path codeLine="44" d="M307.44,337.89 C329.73,361.6 395.72,431.82 417.75,455.25 " fill="none" id="880fe43dfa96c1caa7990e453d64b2e1-5f4021161759ed34e883af07df742a57" style="stroke:#181818;stroke-width:1.0;"/></g><!--link 4ae8434c535c76df893919c2b9c9c766 to b59be758d1ac7a4cf06e7c5664496761--><g id="link_4ae8434c535c76df893919c2b9c9c766_b59be758d1ac7a4cf06e7c5664496761"><path codeLine="45" d="M199,593.56 C199,615.18 199,650.35 199,671.98 " fill="none" id="4ae8434c535c76df893919c2b9c9c766-b59be758d1ac7a4cf06e7c5664496761" style="stroke:#181818;stroke-width:1.0;"/><text fill="#000000" font-family="sans-serif" font-size="13" lengthAdjust="spacing" textLength="14" x="200" y="638.3269">rw</text></g><!--link 04a565d19766ebe0348853b17c395bd1 to 4ae8434c535c76df893919c2b9c9c766--><g id="link_04a565d19766ebe0348853b17c395bd1_4ae8434c535c76df893919c2b9c9c766"><path codeLine="46" d="M199,198.7 C199,295.59 199,485.78 199,547.55 " fill="none" id="04a565d19766ebe0348853b17c395bd1-to-4ae8434c535c76df893919c2b9c9c766" style="stroke:#181818;stroke-width:1.0;stroke-dasharray:7.0,7.0;"/><polygon fill="#181818" points="199,553.55,203,544.55,199,548.55,195,544.55,199,553.55" style="stroke:#181818;stroke-width:1.0;"/><text fill="#000000" font-family="sans-serif" font-size="13" lengthAdjust="spacing" textLength="23" x="200" y="401.0369">use</text></g><!--link 835598d6a1c91d24c621664e693f63c4 to d2e4048eb785166d505ec373eb6db9fc--><g id="link_835598d6a1c91d24c621664e693f63c4_d2e4048eb785166d505ec373eb6db9fc"><path codeLine="47" d="M571,593.56 C571,615.18 571,650.35 571,671.98 " fill="none" id="835598d6a1c91d24c621664e693f63c4-d2e4048eb785166d505ec373eb6db9fc" style="stroke:#181818;stroke-width:1.0;"/><text fill="#000000" font-family="sans-serif" font-size="13" lengthAdjust="spacing" textLength="14" x="572" y="638.3269">rw</text></g><!--link eae5d7ff2f7ca90aec6c4066dd36d1c0 to 835598d6a1c91d24c621664e693f63c4--><g id="link_eae5d7ff2f7ca90aec6c4066dd36d1c0_835598d6a1c91d24c621664e693f63c4"><path codeLine="48" d="M706.94,239.25 C664.84,342.51 603.1351,493.804 581.0751,547.914 " fill="none" id="eae5d7ff2f7ca90aec6c4066dd36d1c0-to-835598d6a1c91d24c621664e693f63c4" style="stroke:#181818;stroke-width:1.0;stroke-dasharray:7.0,7.0;"/><polygon fill="#181818" points="578.81,553.47,585.9117,546.6461,580.6976,548.84,578.5037,543.6259,578.81,553.47" style="stroke:#181818;stroke-width:1.0;"/><text fill="#000000" font-family="sans-serif" font-size="13" lengthAdjust="spacing" textLength="23" x="647" y="401.0369">use</text></g><!--link d8a3456085c0370cdc3a5ae4e9d87089 to cb1be5f4ca5fa323b8a3e8f0a85f3ae4--><g id="link_d8a3456085c0370cdc3a5ae4e9d87089_cb1be5f4ca5fa323b8a3e8f0a85f3ae4"><path codeLine="49" d="M746,593.56 C746,615.18 746,650.35 746,671.98 " fill="none" id="d8a3456085c0370cdc3a5ae4e9d87089-cb1be5f4ca5fa323b8a3e8f0a85f3ae4" style="stroke:#181818;stroke-width:1.0;"/><text fill="#000000" font-family="sans-serif" font-size="13" lengthAdjust="spacing" textLength="13" x="747" y="638.3269">ro</text></g><!--link eae5d7ff2f7ca90aec6c4066dd36d1c0 to d8a3456085c0370cdc3a5ae4e9d87089--><g id="link_eae5d7ff2f7ca90aec6c4066dd36d1c0_d8a3456085c0370cdc3a5ae4e9d87089"><path codeLine="50" d="M746,239.25 C746,342.51 746,493.36 746,547.47 " fill="none" id="eae5d7ff2f7ca90aec6c4066dd36d1c0-to-d8a3456085c0370cdc3a5ae4e9d87089" style="stroke:#181818;stroke-width:1.0;stroke-dasharray:7.0,7.0;"/><polygon fill="#181818" points="746,553.47,750,544.47,746,548.47,742,544.47,746,553.47" style="stroke:#181818;stroke-width:1.0;"/><text fill="#000000" font-family="sans-serif" font-size="13" lengthAdjust="spacing" textLength="23" x="747" y="401.0369">use</text></g><!--link c8d73bc2c2829e0a6d0ece6d97da80c5 to d545ba6facbcbb7457d969949ed05e0d--><g id="link_c8d73bc2c2829e0a6d0ece6d97da80c5_d545ba6facbcbb7457d969949ed05e0d"><path codeLine="51" d="M917,593.56 C917,615.18 917,650.35 917,671.98 " fill="none" id="c8d73bc2c2829e0a6d0ece6d97da80c5-d545ba6facbcbb7457d969949ed05e0d" style="stroke:#181818;stroke-width:1.0;"/><text fill="#000000" font-family="sans-serif" font-size="13" lengthAdjust="spacing" textLength="13" x="918" y="638.3269">ro</text></g><!--link eae5d7ff2f7ca90aec6c4066dd36d1c0 to c8d73bc2c2829e0a6d0ece6d97da80c5--><g id="link_eae5d7ff2f7ca90aec6c4066dd36d1c0_c8d73bc2c2829e0a6d0ece6d97da80c5"><path codeLine="52" d="M784.16,239.25 C825.31,342.51 885.5891,493.7862 907.1491,547.8962 " fill="none" id="eae5d7ff2f7ca90aec6c4066dd36d1c0-to-c8d73bc2c2829e0a6d0ece6d97da80c5" style="stroke:#181818;stroke-width:1.0;stroke-dasharray:7.0,7.0;"/><polygon fill="#181818" points="909.37,553.47,909.7546,543.6287,907.5193,548.8251,902.3228,546.5898,909.37,553.47" style="stroke:#181818;stroke-width:1.0;"/><text fill="#000000" font-family="sans-serif" font-size="13" lengthAdjust="spacing" textLength="23" x="851" y="401.0369">use</text></g><!--SRC=[bLHTRnj737o_Nt7GKsl0qkxj9msuW1evgL7NBc81HL4KXrsIQmk9TUv9YciK-UzPdILKZbEi-tIw4yaP3eSC7pzs3tUBlnVBcshP4TUZtpYEwh2g6sDTC8pWXE7e0ZO8NWkbM5ZfWUf_gXgxk_jkoSjrBNGmrf04Por75afxRrIK3XMOIBB-epewUk1uT5HLlFoqwBlbNSuxgMVJ-NHszQxzwUfwVafX7QYx-IfYraxVdLtETo5q76xozwhwi_hk-tfaX103N-z5Ogqe1R0eCGG785WRHLR7XcKL-lKY1LpNemdcJeSa7TXhfT4eWyvIyg100ZOH4F87MttUgVAUQR5wmh51HX2EZ8x92IaKv1zAMfPUiNNFTL7OICS1V4n4A1Aa9D5h85QD8L23Blss-5QPnLtkxQGUthSDxj5dJxeC-COx8sr8adCp8a83Qekk02qgcTHpV0vioANK98S1HE0SfOMrHCgIH37WxpLzEPmi_Q_dxSzdlv-sxMEtwTlTXDfmlsW_y6DxopstxOkiFD7h-NH-FMilhoxRYwitqujs_dxwzktvczDrl-5lmFpIdbrEVxmuc_rtm6jhVSCjNyTSdy_FzdQx_MkS1Nk5BVD43apqAVIJVhESK8SVk1-lykF98CeOy9HjWY2fqMWRQQrccmTb5Uh36hVTQZsvxpkS3AdaWzB62czGA2UGK0KJM3EGTyB3YzJLusgILXEywRlD_L02FJaLyx8slW4MmP9WP4lWA7Y19dlgsTgOf4KZfPNE09FIxBqAATixETq4umuWnvE7tMs81Y8xuqa6T45Z4fOTcjob1kkiV8rCrB0MskVJuhEVBPbyPb0vnT5IX8I7DVvL2AECd3bZC2ceHiMi6FiaWZT9PQKEirwAatVMn63p_n5ZTDeu0WkWS-SPNL1LF6F7T5o-DAM0eKfH-D9j6ggK9b6VrAF-OLHkR3ocyVY7ua7SrjkiU5ILN3wmAyrupwvufNRiYg1xTgL56jYLl3ImwrxFhWYwPrVQqIVj2bxzl-oAe3jsNm00]--></g></svg>